<mxfile host="app.diagrams.net" agent="Mozilla/5.0 (Windows NT 10.0; Win64; x64) AppleWebKit/537.36 (KHTML, like Gecko) Chrome/131.0.0.0 Safari/537.36" version="25.0.3">
  <diagram name="หน้า-1" id="SEGAnEb5AZRNLxEiXTop">
    <mxGraphModel dx="1050" dy="530" grid="1" gridSize="10" guides="1" tooltips="1" connect="1" arrows="1" fold="1" page="1" pageScale="1" pageWidth="827" pageHeight="1169" math="0" shadow="0">
      <root>
        <mxCell id="0" />
        <mxCell id="1" parent="0" />
        <mxCell id="fTkdsq9PDV-3Hb7qN4dY-3" value="" style="edgeStyle=orthogonalEdgeStyle;rounded=0;orthogonalLoop=1;jettySize=auto;html=1;" edge="1" parent="1" source="fTkdsq9PDV-3Hb7qN4dY-1" target="fTkdsq9PDV-3Hb7qN4dY-2">
          <mxGeometry relative="1" as="geometry" />
        </mxCell>
        <mxCell id="fTkdsq9PDV-3Hb7qN4dY-1" value="Start" style="ellipse;whiteSpace=wrap;html=1;" vertex="1" parent="1">
          <mxGeometry x="354" y="10" width="120" height="80" as="geometry" />
        </mxCell>
        <mxCell id="fTkdsq9PDV-3Hb7qN4dY-5" value="" style="edgeStyle=orthogonalEdgeStyle;rounded=0;orthogonalLoop=1;jettySize=auto;html=1;" edge="1" parent="1" source="fTkdsq9PDV-3Hb7qN4dY-2" target="fTkdsq9PDV-3Hb7qN4dY-4">
          <mxGeometry relative="1" as="geometry" />
        </mxCell>
        <mxCell id="fTkdsq9PDV-3Hb7qN4dY-2" value="Open file" style="whiteSpace=wrap;html=1;" vertex="1" parent="1">
          <mxGeometry x="354" y="180" width="120" height="60" as="geometry" />
        </mxCell>
        <mxCell id="fTkdsq9PDV-3Hb7qN4dY-7" value="" style="edgeStyle=orthogonalEdgeStyle;rounded=0;orthogonalLoop=1;jettySize=auto;html=1;" edge="1" parent="1" source="fTkdsq9PDV-3Hb7qN4dY-4" target="fTkdsq9PDV-3Hb7qN4dY-6">
          <mxGeometry relative="1" as="geometry" />
        </mxCell>
        <mxCell id="fTkdsq9PDV-3Hb7qN4dY-4" value="Output file text" style="shape=parallelogram;perimeter=parallelogramPerimeter;whiteSpace=wrap;html=1;fixedSize=1;" vertex="1" parent="1">
          <mxGeometry x="354" y="320" width="120" height="60" as="geometry" />
        </mxCell>
        <mxCell id="fTkdsq9PDV-3Hb7qN4dY-6" value="End" style="ellipse;whiteSpace=wrap;html=1;" vertex="1" parent="1">
          <mxGeometry x="354" y="460" width="120" height="80" as="geometry" />
        </mxCell>
      </root>
    </mxGraphModel>
  </diagram>
</mxfile>
